<svg width="19" height="19" viewBox="0 0 19 19" fill="none" xmlns="http://www.w3.org/2000/svg">
<path d="M13.9438 12.2834C14.8828 11.0049 15.4375 9.42661 15.4375 7.71875C15.4375 3.4558 11.9817 0 7.71875 0C3.4558 0 0 3.4558 0 7.71875C0 11.9817 3.4558 15.4375 7.71875 15.4375C9.42707 15.4375 11.0058 14.8825 12.2844 13.9431L12.2834 13.9438C12.3184 13.9913 12.3574 14.0368 12.4004 14.0798L16.9728 18.6522C17.4366 19.1159 18.1884 19.1159 18.6522 18.6522C19.1159 18.1884 19.1159 17.4366 18.6522 16.9728L14.0798 12.4004C14.0368 12.3574 13.9913 12.3184 13.9438 12.2834ZM14.25 7.71875C14.25 11.3259 11.3259 14.25 7.71875 14.25C4.11164 14.25 1.1875 11.3259 1.1875 7.71875C1.1875 4.11164 4.11164 1.1875 7.71875 1.1875C11.3259 1.1875 14.25 4.11164 14.25 7.71875Z" fill="white"/>
</svg>
